<svg width="39" height="39" viewBox="0 0 39 39" fill="none" xmlns="http://www.w3.org/2000/svg">
<path d="M19.5 0.6875C9.11113 0.6875 0.6875 9.11113 0.6875 19.5C0.6875 29.8889 9.11113 38.3125 19.5 38.3125C29.8889 38.3125 38.3125 29.8889 38.3125 19.5C38.3125 9.11113 29.8889 0.6875 19.5 0.6875ZM23.8672 13.9948C23.8672 14.4231 23.6614 14.8305 23.3129 15.0824L17.2072 19.5L23.3129 23.9176C23.6614 24.1695 23.8672 24.5727 23.8672 25.0052V26.9746C23.8672 27.2476 23.5564 27.4071 23.3339 27.2476L13.0038 19.7729C12.9609 19.742 12.9259 19.7013 12.9018 19.6542C12.8777 19.6072 12.8651 19.555 12.8651 19.5021C12.8651 19.4492 12.8777 19.397 12.9018 19.35C12.9259 19.3029 12.9609 19.2622 13.0038 19.2313L23.3339 11.7566C23.3841 11.7202 23.4434 11.6984 23.5053 11.6936C23.5671 11.6888 23.6291 11.7012 23.6843 11.7294C23.7395 11.7577 23.7859 11.8007 23.8181 11.8537C23.8504 11.9067 23.8674 11.9676 23.8672 12.0296V13.9948Z" fill="#FF9700"/>
</svg>
