<svg width="32" height="32" viewBox="0 0 32 32" fill="none" xmlns="http://www.w3.org/2000/svg">
<path d="M15.984 0.166626C7.244 0.166626 0.166504 7.25996 0.166504 16C0.166504 24.74 7.244 31.8333 15.984 31.8333C24.7398 31.8333 31.8332 24.74 31.8332 16C31.8332 7.25996 24.7398 0.166626 15.984 0.166626ZM15.9998 28.6666C9.0015 28.6666 3.33317 22.9983 3.33317 16C3.33317 9.00163 9.0015 3.33329 15.9998 3.33329C22.9982 3.33329 28.6665 9.00163 28.6665 16C28.6665 22.9983 22.9982 28.6666 15.9998 28.6666ZM16.7915 8.08329H14.4165V17.5833L22.729 22.5708L23.9165 20.6233L16.7915 16.3958V8.08329Z" fill="#309DA3"/>
</svg>
