<?xml version="1.0" encoding="utf-8"?>
<!-- Generator: Adobe Illustrator 25.4.1, SVG Export Plug-In . SVG Version: 6.00 Build 0)  -->
<svg version="1.1" id="Capa_1" xmlns="http://www.w3.org/2000/svg" xmlns:xlink="http://www.w3.org/1999/xlink" x="0px" y="0px"
	 viewBox="0 0 305 305" style="enable-background:new 0 0 305 305;" xml:space="preserve">
<style type="text/css">
	.st0{fill:#FB883F;}
</style>
<g>
	<path class="st0" d="M152.5,0C68.4,0,0,68.4,0,152.5S68.4,305,152.5,305c84.1,0,152.5-68.4,152.5-152.5S236.6,0,152.5,0z
		 M152.5,280C82.2,280,25,222.8,25,152.5C25,82.2,82.2,25,152.5,25C222.8,25,280,82.2,280,152.5C280,222.8,222.8,280,152.5,280z"/>
	<path class="st0" d="M227.7,77.3c-7.4-7.4-19.4-7.4-26.8,0l-48.4,48.4l-48.4-48.4c-7.4-7.4-19.4-7.4-26.8,0s-7.4,19.4,0,26.8
		l48.4,48.4l-48.4,48.4c-7.4,7.4-7.4,19.4,0,26.8v0c7.4,7.4,19.4,7.4,26.8,0l48.4-48.4l48.4,48.4c7.4,7.4,19.4,7.4,26.8,0v0
		c7.4-7.4,7.4-19.4,0-26.8l-48.4-48.4l48.4-48.4C235.1,96.7,235.1,84.7,227.7,77.3z"/>
</g>
</svg>
