<svg width="100" height="97" viewBox="0 0 100 97" fill="none" xmlns="http://www.w3.org/2000/svg">
<path d="M12.3618 96.8655C14.2386 96.8655 16.0669 96.4895 17.8466 95.7375C19.6263 94.9856 20.9369 94.265 21.7782 93.5757C22.6195 92.8864 23.6226 91.9778 24.7875 90.8499C28.9295 94.8603 35.1423 96.8655 43.4261 96.8655H90.0225C90.8638 96.8655 91.5919 96.5678 92.2067 95.9725C92.8215 95.3772 93.1289 94.6723 93.1289 93.8577C93.1289 93.0431 92.8215 92.3381 92.2067 91.7428C91.5919 91.1475 90.8638 90.8499 90.0225 90.8499C89.2459 90.8499 88.3237 90.1449 87.2559 88.735C86.188 87.3251 85.1687 85.5392 84.198 83.3773C83.2272 81.2155 82.4021 78.6306 81.7225 75.6228C81.043 72.615 80.7032 69.6698 80.7032 66.7874C80.7032 65.1581 80.9136 63.7795 81.3342 62.6516C81.7549 61.5237 82.2726 60.5524 82.8874 59.7378C83.5023 58.9232 84.1171 58.0302 84.7319 57.059C85.3467 56.0877 85.8644 54.6464 86.2851 52.7352C86.7058 50.824 86.9161 48.4898 86.9161 45.7327C86.9161 44.1034 86.7058 42.7719 86.2851 41.7379C85.8644 40.704 85.3467 39.9207 84.7319 39.3881C84.1171 38.8554 83.5023 38.3071 82.8874 37.7432C82.2726 37.1792 81.7549 36.3176 81.3342 35.1583C80.9136 33.9991 80.7032 32.5108 80.7032 30.6936C80.7032 26.6832 82.7742 24.678 86.9161 24.678C89.8284 24.678 92.6274 23.597 95.3131 21.4352C97.9989 19.2733 99.3418 17.3464 99.3418 15.6545C99.3418 14.2133 98.6461 12.8504 97.2547 11.5658C95.8632 10.2812 94.488 9.63892 93.1289 9.63892C92.0287 9.63892 91.0095 9.3256 90.0711 8.69897C89.1327 8.07235 88.2428 7.32039 87.4015 6.44312C86.5601 5.56584 85.6379 4.68856 84.6348 3.81128C83.6317 2.934 82.2726 2.18205 80.5576 1.55542C78.8426 0.928792 76.8202 0.615479 74.4904 0.615479C71.4487 0.615479 68.9732 0.960124 67.0641 1.64941C65.1549 2.3387 63.7311 3.23165 62.7927 4.32825C61.8543 5.42485 61.0939 6.96008 60.5115 8.93396C59.929 10.9078 59.5245 12.866 59.298 14.8086C59.0715 16.7511 58.667 19.2263 58.0846 22.2341C57.5021 25.2419 56.7579 28.0618 55.8518 30.6936C54.6222 34.2654 51.7261 38.8241 47.1635 44.3698C42.601 49.9154 39.2842 53.3775 37.2133 54.7561C28.9294 60.0824 24.7875 68.1033 24.7875 78.8186C24.7875 81.8891 22.9431 84.6619 19.2542 87.1371C15.5653 89.6123 11.1969 90.8499 6.14898 90.8499C4.46633 90.8499 2.49245 90.5365 0.227356 89.9099C0.809807 92.1031 2.23359 93.8107 4.4987 95.0326C6.76379 96.2545 9.38484 96.8655 12.3618 96.8655ZM68.2775 66.7874C68.4717 67.79 68.7305 69.0902 69.0541 70.6881C69.3777 72.286 70.0734 74.7142 71.1413 77.9727C72.2091 81.2311 73.3255 83.5183 74.4904 84.8342H62.0647C62.0647 82.1397 62.3883 79.8055 63.0354 77.8317C63.6826 75.8578 64.3945 74.4322 65.1711 73.5549C65.9477 72.6777 66.6596 71.6594 67.3068 70.5001C67.9539 69.3409 68.2775 68.1033 68.2775 66.7874Z" fill="#F2D8B6"/>
</svg>
