<svg width="21" height="26" viewBox="0 0 21 26" fill="none" xmlns="http://www.w3.org/2000/svg">
<path d="M19.2545 1.9138C17.5722 -0.125282 16.3087 0.179945 16.3087 0.179945L9.24797 8.73195L1.34496 18.3028L0.166626 25.0319L5.72347 23.6047L13.6265 14.0367L20.6872 5.48468C20.686 5.48468 20.9392 3.9543 19.2545 1.9138ZM5.3933 22.7964L3.49863 23.291C3.28895 22.8036 3.0173 22.3592 2.69363 21.974C2.3753 21.582 2.00845 21.2526 1.60629 20.9976L2.01463 18.7041L2.56296 18.0414C2.56296 18.0414 3.59313 18.0668 4.75747 19.4771C5.92063 20.8845 5.9428 22.1351 5.9428 22.1351L5.3933 22.7964Z" fill="#B2B2B2"/>
</svg>
