<svg width="28" height="24" viewBox="0 0 28 24" fill="none" xmlns="http://www.w3.org/2000/svg">
<path d="M14.9375 4.03125C14.9375 3.38228 15.1299 2.74789 15.4905 2.20829C15.851 1.66869 16.3635 1.24812 16.9631 0.999772C17.5626 0.751422 18.2224 0.686442 18.8589 0.81305C19.4954 0.939657 20.0801 1.25217 20.5389 1.71106C20.9978 2.16995 21.3103 2.75461 21.437 3.39111C21.5636 4.02761 21.4986 4.68736 21.2502 5.28693C21.0019 5.8865 20.5813 6.39896 20.0417 6.75951C19.5021 7.12006 18.8677 7.3125 18.2188 7.3125C17.3488 7.31154 16.5148 6.96553 15.8996 6.35038C15.2845 5.73524 14.9385 4.9012 14.9375 4.03125ZM7.4375 9.65625C7.4375 9.00728 7.24506 8.37288 6.88451 7.83329C6.52396 7.29369 6.0115 6.87312 5.41193 6.62477C4.81236 6.37642 4.15261 6.31144 3.51611 6.43805C2.87961 6.56466 2.29495 6.87717 1.83606 7.33606C1.37717 7.79495 1.06466 8.37961 0.93805 9.01611C0.811442 9.65261 0.876422 10.3124 1.12477 10.9119C1.37312 11.5115 1.79369 12.024 2.33329 12.3845C2.87289 12.7451 3.50728 12.9375 4.15625 12.9375C5.0262 12.9365 5.86024 12.5905 6.47538 11.9754C7.09053 11.3602 7.43654 10.5262 7.4375 9.65625ZM9.78125 7.3125C10.4302 7.3125 11.0646 7.12006 11.6042 6.75951C12.1438 6.39896 12.5644 5.8865 12.8127 5.28693C13.0611 4.68736 13.1261 4.02761 12.9995 3.39111C12.8728 2.75461 12.5603 2.16995 12.1014 1.71106C11.6426 1.25217 11.0579 0.939657 10.4214 0.81305C9.78489 0.686442 9.12514 0.751422 8.52557 0.999772C7.926 1.24812 7.41354 1.66869 7.05299 2.20829C6.69244 2.74789 6.5 3.38228 6.5 4.03125C6.50096 4.9012 6.84697 5.73524 7.46212 6.35038C8.07726 6.96553 8.9113 7.31154 9.78125 7.3125ZM20.9248 14.4428C19.965 13.9117 19.2552 13.0213 18.9512 11.9673C18.6397 10.8952 17.9886 9.95313 17.0958 9.28277C16.203 8.6124 15.1167 8.24995 14.0002 8.24988C12.8838 8.24982 11.7974 8.61214 10.9046 9.2824C10.0117 9.95266 9.36046 10.8946 9.04883 11.9667C8.74611 13.0194 8.03804 13.9089 7.08008 14.44C6.02202 15.0134 5.22498 15.9717 4.85397 17.1165C4.48296 18.2614 4.5664 19.505 5.08701 20.59C5.60763 21.6751 6.52554 22.5183 7.65071 22.9453C8.77589 23.3722 10.0222 23.3501 11.1315 22.8836C12.9648 22.1259 15.0235 22.1243 16.858 22.8792C17.9666 23.3486 19.2133 23.3735 20.3398 22.9488C21.4663 22.524 22.3863 21.6822 22.9091 20.5977C23.4319 19.5133 23.5174 18.2692 23.148 17.1234C22.7786 15.9776 21.9826 15.0177 20.9248 14.4428ZM23.8437 6.375C23.1948 6.375 22.5604 6.56744 22.0208 6.92799C21.4812 7.28854 21.0606 7.801 20.8123 8.40057C20.5639 9.00014 20.4989 9.65989 20.6255 10.2964C20.7522 10.9329 21.0647 11.5176 21.5236 11.9764C21.9824 12.4353 22.5671 12.7478 23.2036 12.8745C23.8401 13.0011 24.4999 12.9361 25.0994 12.6877C25.699 12.4394 26.2115 12.0188 26.572 11.4792C26.9326 10.9396 27.125 10.3052 27.125 9.65625C27.124 8.7863 26.778 7.95226 26.1629 7.33712C25.5477 6.72197 24.7137 6.37596 23.8437 6.375Z" fill="#FFBC00"/>
</svg>
