<svg width="35" height="35" viewBox="0 0 35 35" fill="none" xmlns="http://www.w3.org/2000/svg">
<path d="M17.483 0.416656C8.053 0.416656 0.416748 8.06999 0.416748 17.5C0.416748 26.93 8.053 34.5833 17.483 34.5833C26.9301 34.5833 34.5834 26.93 34.5834 17.5C34.5834 8.06999 26.9301 0.416656 17.483 0.416656ZM29.3217 10.6667H24.2822C23.7475 8.55081 22.9558 6.5084 21.9247 4.58499C25.0409 5.65783 27.6667 7.81669 29.3217 10.6667ZM17.5001 3.90166C18.918 5.95166 20.0284 8.22374 20.763 10.6667H14.2372C14.9717 8.22374 16.0822 5.95166 17.5001 3.90166ZM4.27758 20.9167C4.00425 19.8233 3.83341 18.6787 3.83341 17.5C3.83341 16.3212 4.00425 15.1767 4.27758 14.0833H10.0517C9.91508 15.2108 9.81258 16.3383 9.81258 17.5C9.81258 18.6617 9.91508 19.7892 10.0517 20.9167H4.27758ZM5.67841 24.3333H10.718C11.2647 26.4687 12.0505 28.5187 13.0755 30.415C9.95603 29.348 7.32838 27.1876 5.67841 24.3333ZM10.718 10.6667H5.67841C7.32838 7.81234 9.95603 5.65196 13.0755 4.58499C12.0444 6.5084 11.2527 8.55081 10.718 10.6667ZM17.5001 31.0983C16.0822 29.0483 14.9717 26.7762 14.2372 24.3333H20.763C20.0284 26.7762 18.918 29.0483 17.5001 31.0983ZM21.4976 20.9167H13.5026C13.3488 19.7892 13.2292 18.6617 13.2292 17.5C13.2292 16.3383 13.3488 15.1937 13.5026 14.0833H21.4976C21.6513 15.1937 21.7709 16.3383 21.7709 17.5C21.7709 18.6617 21.6513 19.7892 21.4976 20.9167ZM21.9247 30.415C22.9497 28.5187 23.7355 26.4687 24.2822 24.3333H29.3217C27.6667 27.1833 25.0409 29.3422 21.9247 30.415ZM24.9484 20.9167C25.0851 19.7892 25.1876 18.6617 25.1876 17.5C25.1876 16.3383 25.0851 15.2108 24.9484 14.0833H30.7226C30.9959 15.1767 31.1667 16.3212 31.1667 17.5C31.1667 18.6787 30.9959 19.8233 30.7226 20.9167H24.9484Z" fill="#309DA3"/>
</svg>
