<svg width="14" height="23" viewBox="0 0 14 23" fill="none" xmlns="http://www.w3.org/2000/svg">
<path d="M7.41699 10.4354C4.67512 9.72277 3.79337 8.98597 3.79337 7.8385C3.79337 6.52192 5.01332 5.60395 7.05463 5.60395C9.20464 5.60395 10.0018 6.63063 10.0743 8.14046H12.7437C12.6591 6.06294 11.3909 4.15451 8.86643 3.5385V0.893272H5.24282V3.50226C2.89955 4.00956 1.01527 5.53148 1.01527 7.86266C1.01527 10.6528 3.3223 12.0419 6.69226 12.8511C9.71194 13.5759 10.3159 14.6388 10.3159 15.7621C10.3159 16.5955 9.72402 17.9242 7.05463 17.9242C4.56641 17.9242 3.58803 16.8129 3.45517 15.3877H0.797852C0.942796 18.0329 2.92371 19.5186 5.24282 20.0138V22.6348H8.86643V20.0379C11.2218 19.591 13.094 18.2261 13.094 15.75C13.094 12.3197 10.1589 11.148 7.41699 10.4354Z" fill="#336065"/>
</svg>
