<svg width="37" height="33" viewBox="0 0 37 33" fill="none" xmlns="http://www.w3.org/2000/svg">
<path d="M8.55978 3.02875L6.27963 0.72125C0.951172 6.03988 0.951172 9.89437 0.951172 14.875H2.56831L4.18544 14.7726C4.18544 10.0146 4.18544 7.3935 8.55978 3.02875ZM31.198 0.72125L28.9211 3.02875C33.2938 7.3935 33.2938 10.0146 33.2938 14.875L36.5281 14.7726C36.5281 9.89437 36.5281 6.03988 31.198 0.72125ZM18.7396 32.75C19.7411 32.7513 20.7181 32.439 21.5348 31.8565C22.3515 31.2741 22.9674 30.4504 23.2967 29.5H14.1826C14.5119 30.4504 15.1277 31.2741 15.9444 31.8565C16.7611 32.439 17.7381 32.7513 18.7396 32.75ZM30.0596 20.7023V13.25C30.0596 8.02238 26.5261 3.61862 21.7394 2.29425C21.2656 1.095 20.1077 0.25 18.7396 0.25C17.3715 0.25 16.2137 1.095 15.7399 2.29425C10.9515 3.61862 7.41971 8.02238 7.41971 13.25V20.7023L4.65926 23.4761C4.5088 23.6268 4.38947 23.8058 4.30815 24.003C4.22684 24.2002 4.18513 24.4116 4.18544 24.625V26.25C4.18544 26.681 4.35581 27.0943 4.65909 27.399C4.96236 27.7038 5.37368 27.875 5.80257 27.875H31.6767C32.1056 27.875 32.5169 27.7038 32.8202 27.399C33.1235 27.0943 33.2938 26.681 33.2938 26.25V24.625C33.2941 24.4116 33.2524 24.2002 33.1711 24.003C33.0898 23.8058 32.9705 23.6268 32.82 23.4761L30.0596 20.7023Z" fill="#FB883F"/>
</svg>
