<svg width="24" height="22" viewBox="0 0 24 22" fill="none" xmlns="http://www.w3.org/2000/svg">
<path d="M12.1444 17.2175L11.9004 19.5865C11.8038 20.5385 10.8608 21.1845 9.90813 20.9525C8.47496 20.6025 7.46823 19.3475 7.46823 17.9085V14.8735C7.46823 14.1985 7.46823 13.8605 7.31335 13.6135C7.22642 13.4736 7.10531 13.3553 6.9601 13.2685C6.7055 13.1175 6.35861 13.1175 5.66589 13.1175H5.24581C3.43922 13.1175 2.53646 13.1175 1.98058 12.7275C1.56071 12.4308 1.26723 12.0023 1.15314 11.5195C0.99826 10.8695 1.34515 10.0565 2.03999 8.4325L2.38688 7.6225C2.58632 7.1545 2.668 6.6475 2.62557 6.1425C2.37946 3.2685 4.79708 0.847504 7.75254 1.0075L18.8106 1.6055C20.0189 1.6705 20.6225 1.7035 21.1677 2.1585C21.7141 2.6135 21.817 3.0825 22.0217 4.0195C22.4577 6.01287 22.4378 8.07096 21.9634 10.0565C21.6631 11.3045 20.3986 11.9765 19.0928 11.8165C15.6302 11.3965 12.4912 13.8355 12.1444 17.2165V17.2175Z" stroke="#309DA3" stroke-width="2" stroke-linecap="round" stroke-linejoin="round"/>
</svg>
