<?xml version="1.0" encoding="utf-8"?>
<!-- Generator: Adobe Illustrator 26.0.1, SVG Export Plug-In . SVG Version: 6.00 Build 0)  -->
<svg version="1.1" id="Layer_1" xmlns="http://www.w3.org/2000/svg" xmlns:xlink="http://www.w3.org/1999/xlink" x="0px" y="0px"
	 viewBox="0 0 30 30" style="enable-background:new 0 0 30 30;" xml:space="preserve">
<style type="text/css">
	.st0{fill:#FB883F;}
</style>
<path class="st0" d="M15,4C8.9,4,4,8.9,4,15s4.9,11,11,11s11-4.9,11-11S21.1,4,15,4z M21.7,16.8c-0.1,0.4-0.5,0.6-0.9,0.5l-5.6-1.1
	c-0.2,0-0.4-0.2-0.6-0.3C14.2,15.7,14,15.4,14,15l0,0l0.2-8c0-0.5,0.4-0.8,0.8-0.8c0.4,0,0.8,0.4,0.8,0.8l0.1,6.9l5.2,1.8
	C21.6,15.8,21.8,16.3,21.7,16.8z"/>
</svg>
