<svg width="36" height="30" viewBox="0 0 36 30" fill="none" xmlns="http://www.w3.org/2000/svg">
<path d="M32.4375 4.66406H26.8594L25.5305 0.939844C25.4387 0.685006 25.2704 0.464726 25.0487 0.309096C24.827 0.153465 24.5627 0.0700735 24.2918 0.070313H11.7082C11.1545 0.070313 10.6582 0.418946 10.4736 0.939844L9.14062 4.66406H3.5625C1.74961 4.66406 0.28125 6.13242 0.28125 7.94531V26.6484C0.28125 28.4613 1.74961 29.9297 3.5625 29.9297H32.4375C34.2504 29.9297 35.7188 28.4613 35.7188 26.6484V7.94531C35.7188 6.13242 34.2504 4.66406 32.4375 4.66406ZM18 23.3672C14.3742 23.3672 11.4375 20.4305 11.4375 16.8047C11.4375 13.1789 14.3742 10.2422 18 10.2422C21.6258 10.2422 24.5625 13.1789 24.5625 16.8047C24.5625 20.4305 21.6258 23.3672 18 23.3672ZM14.0625 16.8047C14.0625 17.849 14.4773 18.8505 15.2158 19.5889C15.9542 20.3273 16.9557 20.7422 18 20.7422C19.0443 20.7422 20.0458 20.3273 20.7842 19.5889C21.5227 18.8505 21.9375 17.849 21.9375 16.8047C21.9375 15.7604 21.5227 14.7589 20.7842 14.0205C20.0458 13.282 19.0443 12.8672 18 12.8672C16.9557 12.8672 15.9542 13.282 15.2158 14.0205C14.4773 14.7589 14.0625 15.7604 14.0625 16.8047Z" fill="#336065"/>
</svg>
