<svg width="32" height="38" viewBox="0 0 32 38" fill="none" xmlns="http://www.w3.org/2000/svg">
<path d="M16 0.75C20.1772 0.75 24.1832 2.40937 27.1369 5.36307C30.0906 8.31677 31.75 12.3228 31.75 16.5C31.75 23.0205 26.78 29.8525 17.05 37.15C16.7471 37.3772 16.3786 37.5 16 37.5C15.6214 37.5 15.2529 37.3772 14.95 37.15C5.22 29.8525 0.25 23.0205 0.25 16.5C0.25 12.3228 1.90937 8.31677 4.86307 5.36307C7.81677 2.40937 11.8228 0.75 16 0.75V0.75ZM16 4.25C12.7511 4.25 9.63526 5.54062 7.33794 7.83794C5.04062 10.1353 3.75 13.2511 3.75 16.5C3.75 21.2425 7.4565 26.713 15.034 32.7855L16 33.5485L16.966 32.7855C24.5435 26.713 28.25 21.2425 28.25 16.5C28.25 13.2511 26.9594 10.1353 24.6621 7.83794C22.3647 5.54062 19.2489 4.25 16 4.25ZM16 13C16.9283 13 17.8185 13.3687 18.4749 14.0251C19.1313 14.6815 19.5 15.5717 19.5 16.5C19.5 17.4283 19.1313 18.3185 18.4749 18.9749C17.8185 19.6313 16.9283 20 16 20C15.0717 20 14.1815 19.6313 13.5251 18.9749C12.8687 18.3185 12.5 17.4283 12.5 16.5C12.5 15.5717 12.8687 14.6815 13.5251 14.0251C14.1815 13.3687 15.0717 13 16 13V13Z" fill="#309DA3"/>
</svg>
