<?xml version="1.0" encoding="utf-8"?>
<!-- Generator: Adobe Illustrator 25.4.1, SVG Export Plug-In . SVG Version: 6.00 Build 0)  -->
<svg version="1.1" id="Layer_1" xmlns="http://www.w3.org/2000/svg" xmlns:xlink="http://www.w3.org/1999/xlink" x="0px" y="0px"
	 viewBox="0 0 283.5 105.5" style="enable-background:new 0 0 283.5 105.5;" xml:space="preserve">
<style type="text/css">
	.st0{fill:#0660AA;}
	.st1{fill:#FDB718;}
</style>
<g id="XMLID_1_">
	<g id="XMLID_2_">
		<path id="XMLID_3_" class="st0" d="M204.3,75.6h-26.4c-0.8,0-1.5-0.7-1.5-1.5s0.7-1.5,1.5-1.5h26.3c1-0.2,7.9-2,8.2-10.1
			c0.3-8.1-4.3-8.9-5.1-9c0,0-16.9,0-17,0c-6.8-1.1-8.2-7.2-8-10.5c0-8.4,7.1-12.2,10.9-13.1c0.1,0,0.2,0,0.3,0h23.8
			c0.8,0,1.5,0.7,1.5,1.5c0,0.8-0.7,1.5-1.5,1.5h-23.6c-1.2,0.3-8.4,2.5-8.4,10.1c0,0,0,0.1,0,0.1c0,0.3-0.3,6.3,5.4,7.4
			c0,0,16.7,0,16.7,0c0.1,0,8.4,0.6,7.9,12.1c-0.3,8.8-7.2,12.4-10.8,13C204.5,75.6,204.4,75.6,204.3,75.6z"/>
	</g>
	<g id="XMLID_4_">
		<path id="XMLID_5_" class="st0" d="M254.1,75.7h-24.4c-0.1,0-0.1,0-0.2,0c-3.2-0.3-9.3-2.6-9.5-8.6c-0.1-6.4,4.1-25.8,4.3-26.6
			c0-0.1,0-0.1,0.1-0.2c0.1-0.4,3.7-9.8,11.7-9.8h17.5c0.1,0,0.3,0,0.4,0.1c0.3,0.1,7.5,2.2,7.5,8.4c0,5.2-1.5,14-1.6,14.4
			c-0.1,0.7-0.7,1.2-1.5,1.2l-33.9,0.3c-0.9,4.8-1.6,9.7-1.5,12.1c0.1,4.6,6,5.6,6.7,5.7h24.3c0.8,0,1.5,0.7,1.5,1.5
			C255.6,75.1,254.9,75.7,254.1,75.7z M227.3,41.3c-0.2,0.8-1.2,5.4-2.2,10.6l32.1-0.3c0.4-2.6,1.3-8.8,1.3-12.6
			c0-3.5-4.2-5.2-5.2-5.5h-17.3C230.6,33.6,227.7,40.5,227.3,41.3z"/>
	</g>
	<g id="XMLID_8_">
		<path id="XMLID_9_" class="st0" d="M132.2,95.4c-0.1,0-0.2,0-0.3,0c-0.8-0.1-1.4-0.9-1.2-1.7c0,0,2.4-13.2,4.8-26.4
			c1.2-6.6,2.4-13.2,3.3-18.2c0.5-2.5,0.8-4.5,1.1-6c0.2-1.2,0.4-2,0.5-2.5l0,0c1.7-4.6,7-9.6,10.9-10.2c0.1,0,0.3,0,0.4,0
			c1,0,10.5,0,16.8,0c0,0,0,0,0,0c1.5,0,9.2,2.9,8.3,9.1c0,0.1,0,0.1,0,0.2l-4.2,25.5c0,0.1,0,0.1,0,0.2c-0.1,0.3-2.3,7.9-9.6,10.1
			c-0.1,0-0.3,0.1-0.4,0.1l-15.4,0.4c-0.1,0-0.1,0-0.2,0c-0.2,0-5.1-0.5-9-5.5c-1.7,9.1-3.3,18.3-4.3,23.8
			C133.5,94.9,132.9,95.4,132.2,95.4z M138.8,66.1c3.1,5.8,7.8,6.7,8.5,6.8l15.1-0.4c5.2-1.7,7.2-7.2,7.4-7.9l4.2-25.3
			c0.4-2.8-3.9-5.8-5.7-5.8c-1.1,0-4.6,0-8.1,0c-2.1,0-4.2,0-5.8,0c-1.1,0-1.9,0-2.5,0c-2.5,0.4-7.1,4.5-8.5,8.2
			C143,42.7,141,53.9,138.8,66.1z"/>
	</g>
	<path id="XMLID_12_" class="st1" d="M111.9,24c0,2.3-1.9,4.2-4.2,4.2s-4.2-1.9-4.2-4.2c0-2.3,1.9-4.2,4.2-4.2S111.9,21.7,111.9,24z
		"/>
	<circle id="XMLID_13_" class="st1" cx="98.3" cy="9.8" r="4.2"/>
	<path id="XMLID_15_" class="st1" d="M92.9,24c0,2.3-1.9,4.2-4.2,4.2c-2.3,0-4.2-1.9-4.2-4.2c0-2.3,1.9-4.2,4.2-4.2
		C91.1,19.8,92.9,21.7,92.9,24z"/>
	<circle id="XMLID_16_" class="st1" cx="107.3" cy="81" r="4.2"/>
	<circle id="XMLID_17_" class="st1" cx="98.2" cy="67.6" r="4.2"/>
	<circle id="XMLID_21_" class="st1" cx="79.8" cy="67.6" r="3.5"/>
	<path id="XMLID_22_" class="st1" d="M92.5,81c0,1.9-1.5,3.5-3.5,3.5c-1.9,0-3.5-1.5-3.5-3.5s1.5-3.5,3.5-3.5
		C90.9,77.5,92.5,79.1,92.5,81z"/>
	<circle id="XMLID_23_" class="st1" cx="79.5" cy="95.7" r="3.5"/>
	<circle id="XMLID_24_" class="st1" cx="70.6" cy="81" r="2.7"/>
	<circle id="XMLID_25_" class="st1" cx="37.6" cy="53" r="2.7"/>
	<circle id="XMLID_26_" class="st1" cx="42.4" cy="38.7" r="2.7"/>
	<path id="XMLID_27_" class="st1" d="M54.2,24c0,1.5-1.2,2.7-2.7,2.7c-1.5,0-2.7-1.2-2.7-2.7c0-1.5,1.2-2.7,2.7-2.7
		C53,21.3,54.2,22.5,54.2,24z"/>
	<path id="XMLID_28_" class="st1" d="M63.4,10.1c0,1.5-1.2,2.7-2.7,2.7c-1.5,0-2.7-1.2-2.7-2.7c0-1.5,1.2-2.7,2.7-2.7
		C62.2,7.4,63.4,8.6,63.4,10.1z"/>
	<circle id="XMLID_29_" class="st1" cx="61" cy="95.7" r="2.7"/>
	<circle id="XMLID_30_" class="st1" cx="51.8" cy="81" r="2.7"/>
	<circle id="XMLID_32_" class="st1" cx="42.3" cy="67.6" r="2.7"/>
	<circle id="XMLID_33_" class="st1" cx="37.2" cy="81" r="1.4"/>
	<circle id="XMLID_34_" class="st1" cx="28.6" cy="67.6" r="1.4"/>
	<path id="XMLID_38_" class="st1" d="M24.6,52.7c0,0.8-0.6,1.4-1.4,1.4c-0.8,0-1.4-0.6-1.4-1.4c0-0.8,0.6-1.4,1.4-1.4
		C24,51.3,24.6,52,24.6,52.7z"/>
	<circle id="XMLID_39_" class="st1" cx="28.2" cy="38.7" r="1.4"/>
	<circle id="XMLID_40_" class="st1" cx="37.5" cy="24.2" r="1.4"/>
	<circle id="XMLID_41_" class="st1" cx="60.8" cy="67.6" r="3.5"/>
	<circle id="XMLID_46_" class="st1" cx="51.1" cy="53" r="3.5"/>
	<path id="XMLID_47_" class="st1" d="M64.2,38.7c0,1.9-1.5,3.5-3.5,3.5c-1.9,0-3.5-1.5-3.5-3.5c0-1.9,1.5-3.5,3.5-3.5
		C62.6,35.2,64.2,36.8,64.2,38.7z"/>
	<circle id="XMLID_48_" class="st1" cx="70.3" cy="24" r="3.5"/>
	<circle id="XMLID_49_" class="st1" cx="79.4" cy="9.9" r="3.5"/>
	<circle id="XMLID_50_" class="st1" cx="70.1" cy="53" r="4.2"/>
	<circle id="XMLID_51_" class="st1" cx="79.4" cy="38.7" r="4.2"/>
	<circle id="XMLID_52_" class="st1" cx="98.2" cy="95.7" r="4.2"/>
	<rect id="XMLID_70_" x="72.2" y="51.5" class="st1" width="61.9" height="2.6"/>
	<rect id="XMLID_66_" x="82.5" y="37.4" class="st1" width="19.5" height="2.6"/>
	<polygon id="XMLID_69_" class="st1" points="110.3,53.9 99.6,37.4 102.6,37.4 113.3,53.9 	"/>
	<rect id="XMLID_68_" x="101.5" y="66.4" class="st1" width="9.9" height="2.6"/>
	<polygon id="XMLID_67_" class="st1" points="109.1,68.9 118,53.9 120.5,53.9 111.6,68.9 	"/>
</g>
</svg>
