<svg width="30" height="30" viewBox="0 0 30 30" fill="none" xmlns="http://www.w3.org/2000/svg">
<path d="M29.7404 28.3887L20.7692 19.2188C22.5577 17.0508 23.4519 14.5508 23.4519 11.7188C23.4519 9.58984 22.9375 7.62695 21.9087 5.83008C20.8798 4.0332 19.476 2.6123 17.6971 1.56738C15.9183 0.522461 13.9856 0 11.899 0C9.8125 0 7.88462 0.522461 6.11539 1.56738C4.34615 2.6123 2.94712 4.0332 1.91827 5.83008C0.889423 7.62695 0.375 9.58984 0.375 11.7188C0.375 13.8477 0.889423 15.8105 1.91827 17.6074C2.94712 19.4043 4.34615 20.8252 6.11539 21.8701C7.88462 22.915 9.81731 23.4375 11.9135 23.4375C14.7788 23.4375 17.2981 22.4805 19.4712 20.5664L28.4135 29.707C28.6058 29.9023 28.8269 30 29.0769 30C29.3269 30 29.5433 29.9072 29.726 29.7217C29.9087 29.5361 30 29.3115 30 29.0479C30 28.7842 29.9135 28.5645 29.7404 28.3887ZM11.9135 21.5918C10.1442 21.5918 8.51442 21.1475 7.02404 20.2588C5.53365 19.3701 4.35577 18.1689 3.49038 16.6553C2.625 15.1416 2.19231 13.4961 2.19231 11.7188C2.19231 9.94141 2.625 8.2959 3.49038 6.78223C4.35577 5.26855 5.53365 4.06738 7.02404 3.17871C8.51442 2.29004 10.1394 1.8457 11.899 1.8457C13.6587 1.8457 15.2837 2.29004 16.774 3.17871C18.2644 4.06738 19.4423 5.26855 20.3077 6.78223C21.1731 8.2959 21.6058 9.94141 21.6058 11.7188C21.6058 12.4805 21.5192 13.2324 21.3462 13.9746C21.1731 14.7168 20.9279 15.4102 20.6106 16.0547C20.2933 16.6992 19.9135 17.3096 19.4712 17.8857C19.0288 18.4619 18.5288 18.9746 17.9712 19.4238C17.4135 19.873 16.8173 20.2588 16.1827 20.5811C15.5481 20.9033 14.8654 21.1523 14.1346 21.3281C13.4038 21.5039 12.6635 21.5918 11.9135 21.5918Z" fill="white"/>
</svg>
