<svg width="25" height="22" viewBox="0 0 25 22" fill="none" xmlns="http://www.w3.org/2000/svg">
<path d="M12.1358 4.78239L12.3798 2.41339C12.4764 1.46139 13.4194 0.81539 14.3721 1.04739C15.8052 1.39739 16.812 2.65239 16.812 4.09139V7.12639C16.812 7.80139 16.812 8.13939 16.9668 8.38639C17.0549 8.52739 17.1758 8.64639 17.3201 8.73139C17.5747 8.88239 17.9216 8.88239 18.6143 8.88239H19.0344C20.841 8.88239 21.7437 8.88239 22.2996 9.27239C22.7165 9.56539 23.0104 9.99439 23.1271 10.4804C23.2819 11.1304 22.935 11.9434 22.2402 13.5674L21.8944 14.3774C21.6938 14.8465 21.6117 15.3532 21.6546 15.8574C21.9007 18.7314 19.4831 21.1524 16.5277 20.9934L5.46961 20.3944C4.26133 20.3294 3.65772 20.2964 3.11246 19.8414C2.56613 19.3864 2.46323 18.9174 2.25849 17.9804C1.82274 15.987 1.84263 13.929 2.31684 11.9434C2.61705 10.6954 3.88156 10.0234 5.18743 10.1834C8.64997 10.6034 11.7889 8.16439 12.1358 4.78339V4.78239Z" stroke="#309DA3" stroke-width="2" stroke-linecap="round" stroke-linejoin="round"/>
</svg>
