<svg width="24" height="24" viewBox="0 0 24 24" fill="none" xmlns="http://www.w3.org/2000/svg">
<path d="M14.8 4.6131L21.501 15.7741C22.464 17.3771 21.991 19.4861 20.444 20.4841C19.9248 20.8203 19.3196 20.9995 18.701 21.0001H5.298C3.477 21.0001 2 19.4701 2 17.5811C2 16.9421 2.173 16.3171 2.498 15.7741L9.2 4.6131C10.162 3.0101 12.196 2.5191 13.743 3.5171C14.171 3.7931 14.533 4.1681 14.8 4.6131ZM12 17.0001C12.2652 17.0001 12.5196 16.8947 12.7071 16.7072C12.8946 16.5197 13 16.2653 13 16.0001C13 15.7349 12.8946 15.4805 12.7071 15.293C12.5196 15.1055 12.2652 15.0001 12 15.0001C11.7348 15.0001 11.4804 15.1055 11.2929 15.293C11.1054 15.4805 11 15.7349 11 16.0001C11 16.2653 11.1054 16.5197 11.2929 16.7072C11.4804 16.8947 11.7348 17.0001 12 17.0001ZM12 8.0001C11.7348 8.0001 11.4804 8.10546 11.2929 8.293C11.1054 8.48053 11 8.73489 11 9.0001V13.0001C11 13.2653 11.1054 13.5197 11.2929 13.7072C11.4804 13.8947 11.7348 14.0001 12 14.0001C12.2652 14.0001 12.5196 13.8947 12.7071 13.7072C12.8946 13.5197 13 13.2653 13 13.0001V9.0001C13 8.73489 12.8946 8.48053 12.7071 8.293C12.5196 8.10546 12.2652 8.0001 12 8.0001Z" fill="#336065"/>
</svg>
